<?xml version="1.0" encoding="utf-8"?>
<!-- Generator: Adobe Illustrator 24.1.2, SVG Export Plug-In . SVG Version: 6.00 Build 0)  -->
<svg version="1.1" id="Layer_1" xmlns="http://www.w3.org/2000/svg" xmlns:xlink="http://www.w3.org/1999/xlink" x="0px" y="0px"
	 viewBox="0 0 500 171.57" style="enable-background:new 0 0 500 171.57;" xml:space="preserve">
<style type="text/css">
	.st0{fill:#2554CA;}
	.st1{fill:#FFFFFF;}
	.st2{fill:#58595B;}
	.st3{font-family:'MyriadPro-Regular';}
	.st4{font-size:57.1596px;}
	.st5{fill:#808285;}
</style>
<g>
	<polygon class="st0" points="165.22,44.98 93.72,3.7 22.22,44.98 22.22,127.54 93.72,168.82 165.22,127.54 	"/>
	<g>
		<polygon class="st1" points="130.67,53.96 93.62,32.43 66.29,48.37 84.92,60.17 93.62,55 130.67,76.53 		"/>
		<polygon class="st1" points="56.76,54.48 130.67,96.61 130.67,118.55 56.76,76.53 		"/>
		<polygon class="st1" points="121.36,123.73 103.14,112.55 93.62,118.14 56.76,96.61 56.76,119.38 93.62,140.08 		"/>
	</g>
	<text transform="matrix(1 0 0 1 179.7998 91.7842)" class="st2 st3 st4">Scrawler</text>
	<g>
		<g>
			<path class="st5" d="M184.48,112.03c1.03-0.21,2.52-0.34,3.92-0.34c2.16,0,3.59,0.41,4.57,1.3c0.78,0.69,1.24,1.77,1.24,3
				c0,2.07-1.32,3.45-2.98,4.02v0.06c1.2,0.42,1.93,1.56,2.31,3.2c0.52,2.21,0.89,3.72,1.21,4.33h-2.11
				c-0.25-0.46-0.6-1.8-1.04-3.78c-0.47-2.16-1.32-3-3.17-3.06h-1.93v6.84h-2.04V112.03z M186.52,119.22h2.08
				c2.18,0,3.56-1.19,3.56-3c0-2.05-1.48-2.94-3.63-2.94c-0.99,0-1.67,0.09-2.02,0.18V119.22z"/>
			<path class="st5" d="M199.64,122.64l-1.63,4.96h-2.11l5.37-15.79h2.45l5.39,15.79h-2.18l-1.69-4.96H199.64z M204.83,121.05
				l-1.56-4.54c-0.34-1.03-0.58-1.97-0.81-2.88h-0.06c-0.23,0.92-0.47,1.89-0.78,2.85l-1.56,4.57H204.83z"/>
			<path class="st5" d="M211.41,112.03c1.25-0.2,2.73-0.34,4.34-0.34c2.92,0,5.01,0.69,6.4,1.98c1.41,1.28,2.24,3.11,2.24,5.65
				c0,2.59-0.81,4.68-2.27,6.14c-1.49,1.47-3.93,2.28-6.99,2.28c-1.46,0-2.67-0.06-3.71-0.18V112.03z M213.46,126
				c0.52,0.08,1.27,0.1,2.05,0.1c4.37,0.01,6.72-2.42,6.72-6.69c0.02-3.73-2.08-6.08-6.38-6.08c-1.06,0-1.85,0.1-2.39,0.21V126z"/>
			<path class="st5" d="M238.2,127.6l-0.18-1.43h-0.06c-0.62,0.88-1.84,1.69-3.47,1.69c-2.29,0-3.46-1.63-3.46-3.25
				c0-2.74,2.43-4.25,6.81-4.22v-0.24c0-0.92-0.26-2.63-2.58-2.61c-1.05,0-2.16,0.31-2.95,0.84l-0.47-1.37
				c0.94-0.61,2.31-0.99,3.74-0.99c3.46,0,4.31,2.37,4.31,4.64v4.24c0,0.97,0.04,1.93,0.17,2.71H238.2z M237.88,121.82
				c-2.23-0.05-4.78,0.35-4.78,2.54c0,1.35,0.89,1.97,1.92,1.97c1.49,0,2.43-0.94,2.76-1.9c0.07-0.22,0.1-0.45,0.1-0.65V121.82z"/>
			<path class="st5" d="M243.21,119.33c0-1.18-0.04-2.12-0.09-3.06h1.82l0.11,1.86h0.06c0.56-1.06,1.87-2.12,3.75-2.12
				c1.56,0,3.99,0.94,3.99,4.83v6.76h-2.05v-6.53c0-1.83-0.69-3.37-2.62-3.37c-1.35,0-2.41,0.96-2.78,2.11
				c-0.09,0.25-0.14,0.62-0.14,0.96v6.83h-2.05V119.33z"/>
			<path class="st5" d="M265.98,110.97v13.71c0,1.01,0.04,2.14,0.09,2.92h-1.83l-0.1-1.96h-0.05c-0.63,1.27-1.99,2.22-3.84,2.22
				c-2.75,0-4.86-2.32-4.86-5.76c-0.02-3.79,2.33-6.09,5.09-6.09c1.74,0,2.91,0.82,3.42,1.72h0.05v-6.76H265.98z M263.93,120.88
				c0-0.27-0.02-0.61-0.09-0.88c-0.32-1.3-1.43-2.37-2.98-2.37c-2.13,0-3.41,1.87-3.41,4.36c0,2.3,1.15,4.21,3.37,4.21
				c1.38,0,2.63-0.93,3.01-2.47c0.07-0.27,0.1-0.56,0.1-0.88V120.88z"/>
			<path class="st5" d="M287.76,120.67c-0.12-2.19-0.27-4.86-0.25-6.81h-0.06c-0.54,1.83-1.2,3.82-1.99,5.98l-2.79,7.66h-1.54
				l-2.57-7.52c-0.75-2.23-1.37-4.26-1.81-6.13h-0.06c-0.05,1.97-0.16,4.6-0.31,6.96l-0.42,6.78h-1.94l1.1-15.79h2.6l2.69,7.64
				c0.65,1.93,1.18,3.67,1.59,5.32h0.06c0.41-1.6,0.97-3.34,1.67-5.32l2.82-7.64h2.61l0.98,15.79h-2L287.76,120.67z"/>
			<path class="st5" d="M303.46,121.83c0,4.19-2.91,6.03-5.63,6.03c-3.07,0-5.45-2.24-5.45-5.84c0-3.79,2.49-6.01,5.63-6.01
				C301.26,116.02,303.46,118.38,303.46,121.83z M294.48,121.96c0,2.48,1.42,4.35,3.43,4.35c1.98,0,3.45-1.85,3.45-4.42
				c0-1.92-0.97-4.34-3.41-4.34C295.53,117.56,294.48,119.81,294.48,121.96z"/>
			<path class="st5" d="M315.84,110.97v13.71c0,1.01,0.04,2.14,0.09,2.92h-1.83l-0.1-1.96h-0.05c-0.63,1.27-1.99,2.22-3.84,2.22
				c-2.75,0-4.86-2.32-4.86-5.76c-0.02-3.79,2.33-6.09,5.09-6.09c1.74,0,2.91,0.82,3.42,1.72h0.05v-6.76H315.84z M313.79,120.88
				c0-0.27-0.02-0.61-0.09-0.88c-0.32-1.3-1.43-2.37-2.98-2.37c-2.13,0-3.41,1.87-3.41,4.36c0,2.3,1.15,4.21,3.37,4.21
				c1.38,0,2.63-0.93,3.01-2.47c0.07-0.27,0.1-0.56,0.1-0.88V120.88z"/>
			<path class="st5" d="M328.75,124.5c0,1.19,0.04,2.2,0.09,3.1h-1.82l-0.11-1.85h-0.06c-0.52,0.91-1.72,2.11-3.75,2.11
				c-1.77,0-3.9-0.99-3.9-4.96v-6.62h2.05v6.26c0,2.16,0.67,3.63,2.53,3.63c1.38,0,2.34-0.97,2.73-1.89
				c0.11-0.3,0.19-0.67,0.19-1.06v-6.94h2.05V124.5z"/>
			<path class="st5" d="M332.18,110.97h2.05v16.63h-2.05V110.97z"/>
			<path class="st5" d="M343.99,127.6l-0.18-1.43h-0.06c-0.62,0.88-1.84,1.69-3.47,1.69c-2.29,0-3.46-1.63-3.46-3.25
				c0-2.74,2.43-4.25,6.81-4.22v-0.24c0-0.92-0.26-2.63-2.58-2.61c-1.05,0-2.16,0.31-2.95,0.84l-0.47-1.37
				c0.94-0.61,2.31-0.99,3.74-0.99c3.46,0,4.31,2.37,4.31,4.64v4.24c0,0.97,0.04,1.93,0.17,2.71H343.99z M343.67,121.82
				c-2.23-0.05-4.78,0.35-4.78,2.54c0,1.35,0.89,1.97,1.92,1.97c1.49,0,2.43-0.94,2.76-1.9c0.07-0.22,0.1-0.45,0.1-0.65V121.82z"/>
			<path class="st5" d="M348.99,119.8c0-1.34-0.03-2.48-0.09-3.53h1.81l0.08,2.22h0.07c0.53-1.52,1.78-2.48,3.15-2.48
				c0.22,0,0.38,0.01,0.57,0.06v1.94c-0.21-0.04-0.42-0.06-0.7-0.06c-1.45,0-2.48,1.09-2.76,2.64c-0.05,0.29-0.08,0.63-0.08,0.96
				v6.05h-2.05V119.8z"/>
			<path class="st5" d="M361.68,111.82h8.5v1.7h-6.45v5.26h5.96v1.69h-5.96v7.14h-2.05V111.82z"/>
			<path class="st5" d="M373.02,119.8c0-1.34-0.03-2.48-0.09-3.53h1.81l0.08,2.22h0.07c0.53-1.52,1.78-2.48,3.15-2.48
				c0.22,0,0.38,0.01,0.57,0.06v1.94c-0.21-0.04-0.42-0.06-0.7-0.06c-1.45,0-2.48,1.09-2.76,2.64c-0.05,0.29-0.08,0.63-0.08,0.96
				v6.05h-2.05V119.8z"/>
			<path class="st5" d="M386.96,127.6l-0.18-1.43h-0.06c-0.62,0.88-1.84,1.69-3.47,1.69c-2.29,0-3.46-1.63-3.46-3.25
				c0-2.74,2.43-4.25,6.81-4.22v-0.24c0-0.92-0.26-2.63-2.58-2.61c-1.05,0-2.16,0.31-2.95,0.84l-0.47-1.37
				c0.94-0.61,2.31-0.99,3.74-0.99c3.46,0,4.31,2.37,4.31,4.64v4.24c0,0.97,0.04,1.93,0.17,2.71H386.96z M386.64,121.82
				c-2.23-0.05-4.78,0.35-4.78,2.54c0,1.35,0.89,1.97,1.92,1.97c1.49,0,2.43-0.94,2.76-1.9c0.07-0.22,0.1-0.45,0.1-0.65V121.82z"/>
			<path class="st5" d="M391.97,119.33c0-1.18-0.04-2.12-0.09-3.06h1.79l0.11,1.82h0.06c0.63-1.08,1.69-2.08,3.58-2.08
				c1.54,0,2.71,0.93,3.19,2.27h0.05c0.36-0.64,0.81-1.13,1.28-1.47c0.69-0.51,1.42-0.8,2.49-0.8c1.51,0,3.74,0.97,3.74,4.91v6.67
				h-2.01v-6.41c0-2.19-0.81-3.49-2.46-3.49c-1.18,0-2.09,0.86-2.45,1.85c-0.1,0.3-0.17,0.67-0.17,1.03v7.01h-2.01v-6.8
				c0-1.8-0.8-3.1-2.35-3.1c-1.28,0-2.23,1.02-2.57,2.06c-0.1,0.3-0.16,0.66-0.16,1.01v6.83h-2.01V119.33z"/>
			<path class="st5" d="M412.66,122.31c0.04,2.78,1.81,3.93,3.88,3.93c1.47,0,2.38-0.26,3.14-0.58l0.36,1.46
				c-0.72,0.33-1.98,0.72-3.78,0.72c-3.48,0-5.57-2.32-5.57-5.72c0-3.43,2.02-6.11,5.33-6.11c3.7,0,4.66,3.24,4.66,5.33
				c0,0.43-0.02,0.74-0.07,0.97H412.66z M418.68,120.83c0.02-1.3-0.53-3.33-2.84-3.33c-2.1,0-3,1.9-3.16,3.33H418.68z"/>
			<path class="st5" d="M424.04,116.28l1.52,5.75c0.33,1.26,0.61,2.45,0.84,3.62h0.06c0.25-1.14,0.63-2.37,1.02-3.6l1.85-5.76h1.73
				l1.76,5.67c0.4,1.34,0.74,2.54,1,3.7h0.06c0.21-1.15,0.51-2.34,0.88-3.68l1.62-5.68h2.03l-3.66,11.33h-1.87l-1.72-5.41
				c-0.41-1.27-0.73-2.4-1-3.73h-0.05c-0.29,1.37-0.64,2.54-1.04,3.75l-1.82,5.39h-1.88l-3.42-11.33H424.04z"/>
			<path class="st5" d="M450.73,121.83c0,4.19-2.91,6.03-5.63,6.03c-3.07,0-5.45-2.24-5.45-5.84c0-3.79,2.49-6.01,5.63-6.01
				C448.53,116.02,450.73,118.38,450.73,121.83z M441.74,121.96c0,2.48,1.42,4.35,3.43,4.35c1.98,0,3.45-1.85,3.45-4.42
				c0-1.92-0.97-4.34-3.41-4.34C442.8,117.56,441.74,119.81,441.74,121.96z"/>
			<path class="st5" d="M453.33,119.8c0-1.34-0.03-2.48-0.09-3.53h1.81l0.08,2.22h0.07c0.53-1.52,1.78-2.48,3.15-2.48
				c0.22,0,0.38,0.01,0.57,0.06v1.94c-0.21-0.04-0.42-0.06-0.7-0.06c-1.45,0-2.48,1.09-2.76,2.64c-0.05,0.29-0.08,0.63-0.08,0.96
				v6.05h-2.05V119.8z"/>
			<path class="st5" d="M463.03,121.47h0.05c0.28-0.4,0.67-0.9,0.99-1.29l3.34-3.9h2.47l-4.37,4.66l4.99,6.67h-2.51l-3.9-5.44
				l-1.05,1.18v4.26h-2.05v-16.63h2.05V121.47z"/>
		</g>
	</g>
	<g>
		<g>
			<path class="st0" d="M394.84,60.27c2.17-0.37,5.08-0.64,8.85-0.64c4.39,0,7.68,0.81,9.87,2.55c2.04,1.58,3.25,4.08,3.25,7
				c0,3.09-1.02,5.5-2.87,7.21c-2.43,2.3-6.23,3.39-10.31,3.39c-1.01,0-1.91-0.04-2.67-0.17v12.17h-6.12V60.27z M400.96,75.16
				c0.69,0.16,1.53,0.21,2.6,0.21c4.46,0,7.12-2.21,7.12-5.93c0-3.37-2.3-5.45-6.54-5.45c-1.46,0-2.56,0.13-3.18,0.27V75.16z"/>
			<path class="st0" d="M428.12,59.84v12.91h12.9V59.84h6.17v31.94h-6.17V77.7h-12.9v14.09h-6.17V59.84H428.12z"/>
			<path class="st0" d="M454.17,60.27c2.17-0.37,5.08-0.64,8.85-0.64c4.39,0,7.68,0.81,9.87,2.55c2.04,1.58,3.25,4.08,3.25,7
				c0,3.09-1.02,5.5-2.87,7.21c-2.43,2.3-6.23,3.39-10.31,3.39c-1.01,0-1.91-0.04-2.67-0.17v12.17h-6.12V60.27z M460.29,75.16
				c0.69,0.16,1.53,0.21,2.6,0.21c4.46,0,7.12-2.21,7.12-5.93c0-3.37-2.3-5.45-6.54-5.45c-1.46,0-2.56,0.13-3.18,0.27V75.16z"/>
		</g>
	</g>
</g>
</svg>
